<svg width="249" height="40" viewBox="0 0 249 40" fill="none" xmlns="http://www.w3.org/2000/svg">
<g clip-path="url(#clip0_2431_39224)">
<path d="M36.2959 9.646H37.2563V30.289H36.2959V9.646Z" fill="black"/>
<path d="M42.1729 9.646H43.1619L56.2834 28.6508V9.646H57.2437V30.289H56.2834L43.1332 11.3127V30.289H42.1729V9.646Z" fill="black"/>
<path d="M66.6115 10.5362H60.0938V9.646H74.1183V10.5362H67.6006V30.289H66.6115V10.5362Z" fill="black"/>
<path d="M77.6386 9.646V22.6228C77.6386 27.4653 79.8303 29.8866 84.2137 29.8866C86.4428 29.8866 88.1213 29.2173 89.2468 27.8765C90.2755 26.632 90.7887 24.8822 90.7887 22.6228V9.646H91.7491V23.0821C91.7491 25.475 91.0993 27.3407 89.7997 28.6814C88.4627 30.0397 86.5992 30.7199 84.2137 30.7199C81.8083 30.7199 79.947 30.0397 78.6276 28.6814C77.328 27.38 76.6782 25.5143 76.6782 23.0821V9.646H77.6386Z" fill="black"/>
<path d="M96.2292 24.0006C96.3459 25.8007 96.9428 27.2311 98.0178 28.2919C99.0949 29.3528 100.564 29.8864 102.425 29.8864C104.055 29.8864 105.41 29.484 106.498 28.6813C107.74 27.7998 108.359 26.5947 108.359 25.0636C108.359 23.4757 107.71 22.2793 106.41 21.4744C105.769 21.0544 104.373 20.5557 102.221 19.9805C102.201 19.9608 102.075 19.9236 101.842 19.8668C99.4363 19.1975 97.9142 18.5741 97.2755 18.001C96.2864 17.1218 95.7908 15.9822 95.7908 14.5846C95.7908 12.8239 96.412 11.4744 97.6521 10.536C98.7975 9.63709 100.271 9.18652 102.075 9.18652C104.033 9.18652 105.604 9.71146 106.789 10.7657C108.011 11.8199 108.67 13.3116 108.767 15.2451H107.837C107.798 13.5807 107.227 12.2793 106.122 11.3409C105.055 10.442 103.685 9.99142 102.02 9.99142C100.467 9.99142 99.216 10.3742 98.2667 11.1397C97.238 11.9424 96.7248 13.0907 96.7248 14.5846C96.7248 15.6563 97.1499 16.5837 98.0045 17.3689C98.6455 17.942 100.022 18.4975 102.137 19.0334C102.174 19.0531 102.227 19.0662 102.298 19.0772C102.366 19.0881 102.447 19.11 102.544 19.1493C104.776 19.7421 106.307 20.2976 107.141 20.8138C108.615 21.7521 109.353 23.082 109.353 24.8033C109.353 26.7171 108.663 28.2088 107.287 29.2828C106.027 30.2386 104.397 30.7176 102.399 30.7176C100.284 30.7176 98.6081 30.1139 97.3658 28.9087C96.1058 27.7408 95.4076 26.1047 95.271 24.0006H96.2292Z" fill="black"/>
<path d="M118.428 9.646H119.417L124.539 28.5655L129.717 14.5563H130.649L135.856 28.5655L140.946 9.646H141.935L136.349 30.289H135.36L130.182 15.9058L125.003 30.289H124.014L118.428 9.646Z" fill="black"/>
<path d="M144.697 9.646H145.658V30.289H144.697V9.646Z" fill="black"/>
<path d="M150.574 9.646H151.563L164.685 28.6508V9.646H165.645V30.289H164.685L151.535 11.3127V30.289H150.574V9.646Z" fill="black"/>
<path d="M170.416 9.646H175.216C178.299 9.646 180.54 9.98064 181.936 10.6499C185.02 12.181 186.562 15.2912 186.562 19.9806C186.562 24.7466 185.02 27.8481 181.936 29.2829C180.463 29.9544 178.222 30.2868 175.216 30.2868H170.416V9.646ZM175.449 29.4273C178.26 29.4273 180.337 29.0817 181.674 28.3927C184.253 27.0519 185.544 24.2501 185.544 19.9806C185.544 16.5161 184.621 13.9614 182.78 12.3144C181.908 11.5489 180.753 11.0327 179.317 10.7637C178.87 10.6871 178.328 10.6302 177.687 10.5909C177.048 10.5515 176.302 10.534 175.447 10.534H171.403V29.4251H175.449V29.4273Z" fill="black"/>
<path d="M191.771 12.4017C193.401 10.2583 195.758 9.18652 198.842 9.18652C201.946 9.18652 204.311 10.2473 205.941 12.3733C207.395 14.3068 208.124 16.8418 208.124 19.9805C208.124 23.1388 207.395 25.6651 205.941 27.5592C204.311 29.6655 201.946 30.7176 198.842 30.7176C195.738 30.7176 193.381 29.6655 191.771 27.5592C190.315 25.6651 189.588 23.1388 189.588 19.9805C189.591 16.8615 190.317 14.3353 191.771 12.4017ZM192.5 26.9009C193.934 28.8912 196.049 29.8864 198.842 29.8864C201.655 29.8864 203.778 28.8912 205.214 26.9009C206.474 25.1598 207.106 22.8523 207.106 19.9827C207.106 17.1305 206.465 14.8252 205.186 13.0645C203.73 11.0544 201.617 10.0505 198.842 10.0505C196.067 10.0505 193.954 11.0544 192.5 13.0645C191.238 14.8252 190.608 17.1327 190.608 19.9827C190.608 22.8348 191.238 25.1402 192.5 26.9009Z" fill="black"/>
<path d="M209.869 9.646H210.858L215.979 28.5655L221.157 14.5563H222.089L227.296 28.5655L232.387 9.646H233.376L227.79 30.289H226.801L221.622 15.9058L216.444 30.289H215.455L209.869 9.646Z" fill="black"/>
<path d="M235.878 24.0006C235.995 25.8007 236.592 27.2311 237.667 28.2919C238.744 29.3528 240.213 29.8864 242.074 29.8864C243.704 29.8864 245.059 29.484 246.147 28.6813C247.389 27.7998 248.008 26.5947 248.008 25.0636C248.008 23.4757 247.359 22.2793 246.059 21.4744C245.418 21.0544 244.021 20.5557 241.869 19.9805C241.85 19.9608 241.724 19.9236 241.491 19.8668C239.085 19.1975 237.563 18.5741 236.924 18.001C235.935 17.1218 235.44 15.9822 235.44 14.5846C235.44 12.8239 236.061 11.4744 237.301 10.536C238.446 9.63709 239.92 9.18652 241.724 9.18652C243.682 9.18652 245.253 9.71146 246.438 10.7657C247.66 11.8199 248.319 13.3116 248.416 15.2451H247.486C247.447 13.5807 246.876 12.2793 245.77 11.3409C244.704 10.442 243.334 9.99142 241.669 9.99142C240.116 9.99142 238.865 10.3742 237.916 11.1397C236.889 11.9424 236.374 13.0907 236.374 14.5846C236.374 15.6563 236.799 16.5837 237.653 17.3689C238.294 17.942 239.671 18.4975 241.786 19.0334C241.823 19.0531 241.876 19.0662 241.947 19.0772C242.015 19.0881 242.096 19.11 242.193 19.1493C244.425 19.7421 245.955 20.2976 246.79 20.8138C248.264 21.7521 249.002 23.082 249.002 24.8033C249.002 26.7171 248.312 28.2088 246.936 29.2828C245.676 30.2386 244.046 30.7176 242.048 30.7176C239.933 30.7176 238.257 30.1139 237.015 28.9087C235.755 27.7408 235.056 26.1047 234.92 24.0006H235.878Z" fill="black"/>
<path d="M0 26.5007L2.34367 22.8218L11.9034 31.0545L0 26.5007Z" fill="#878787"/>
<path d="M0 26.5005L9.15222 12.1348L5.3834 25.4375L0 26.5005Z" fill="#3C3C3B"/>
<path d="M7.68735 5.90576L11.4496 8.14329L3.39648 17.8349L7.68735 5.90576Z" fill="#878787"/>
<path d="M7.6875 5.90576L22.3751 14.6372L8.89017 11.2229L7.6875 5.90576Z" fill="#3C3C3B"/>
<path d="M28.6705 13.3182L26.3268 16.9993L16.7671 8.7666L28.6705 13.3182Z" fill="#878787"/>
<path d="M28.6703 13.3184L19.5181 27.6841L23.2869 14.3814L28.6703 13.3184Z" fill="#3C3C3B"/>
<path d="M20.9851 33.9133L17.2207 31.6779L25.2738 21.9863L20.9851 33.9155" fill="#68B43E"/>
<path d="M20.9852 33.9152L6.29541 25.1816L19.7826 28.5959L20.9852 33.9152Z" fill="#5A9C36"/>
</g>
<defs>
<clipPath id="clip0_2431_39224">
<rect width="249" height="40" fill="white"/>
</clipPath>
</defs>
</svg>
